<svg width="781" height="665" viewBox="0 0 781 665" fill="none" xmlns="http://www.w3.org/2000/svg">
<g filter="url(#filter0_d_992_10756)">
<path d="M747.319 404.501L739.344 396.943L731.111 396.004L727.265 403.059L716.197 405.319L716.143 396.782L723.799 395.874L726.007 390.589L734.947 390.175L745.59 386.731L746.017 381.036L738.556 378.979L733.328 370.41L723.023 366.184L713.692 357.867L706.033 350.718L697.042 350.856L679.05 338.096L679.765 336.824L673.265 332.002L664.147 330.248L656.871 327.181L644.926 318.613L632.859 315.437L628.434 317.957L614.346 311.732L595.601 308.07L596.561 313.339L601.4 314.409L606.8 321.242L607.834 326.912L600.304 323.156L597.618 328.535L598.48 333.26L607.858 339.119L608.807 344.324L596.223 338.313L585.387 329.775L579.235 330.897L582.028 334.143L591.234 345.772L578.749 338.286L573.357 337.557L574.478 343.707L587.831 356.659L588.127 365.618L583.171 371.404L586.179 379.867L584.013 376.027L577.995 375.983L579.915 365.539L575.061 358.118L569.293 353.267L561.951 360.351L555.767 359.399L554.718 367.041C554.718 367.041 549.555 367.983 549.889 368.575C550.222 369.168 551.267 376.135 551.267 376.135L554.588 376.588L549.452 384.607L541.268 381.706L534.786 383.7L532.118 380.687L537.078 376.613L546.039 376.6L543.35 370.091L535.2 367.342L535.214 364.741L543.294 362.613L554.047 351.902L561.328 342.711L561.429 337L563.922 332.79L570.947 328.091L570.229 324.151L573.591 322.396L584.018 313.652L584.227 298.308L580.08 293.86L575.76 298.065L574.02 302.618L570.148 304.624L564.959 301.177L558.401 309.884L552.286 311.165L546.674 319.699L536.845 330.121L530.339 333.749L529.612 334.212L530.277 346.107L536.689 349.091L533.837 356.693L523.925 368.265L511.789 370.479L504.058 381.652L502.785 388.066L496.722 402.202L503.275 406.865L510.285 408.68L505.827 413.076L506.574 417.176L511.554 416.59L513.85 420.242L522.855 417.788L526.156 423.532L527.191 429.209L539.392 427.306L540.943 435.818L546.318 437.601L549.622 435.616L559.869 444.261L587.27 445.121L591.756 430.866L598.813 432.028L605.504 443.259L618.141 454.878L628.736 471.991L636.494 484.5L646.337 487.594L653.907 486.213L657.777 491.365L669.562 497.033L671.284 506.483L681.179 512.496L679.55 519.635L685.504 518.789L691.002 514.121L691.499 510.125L687.535 507.176L688.524 500.529L684.176 491.431L681.558 485.314L692.085 485.354L709.806 504.833L715.811 517.662L720.778 516.755L722.478 532.803C726.958 536.882 730.788 541.621 733.838 546.855C738.827 555.468 740.197 544.231 740.197 544.231L738.002 534.868L734.57 535.494C734.57 535.494 733.408 531.8 733.062 529.903C732.717 528.006 740.872 528.478 740.872 528.478L741.099 515.009L736.345 511.723L732.928 505.016L736.73 495.039L729.332 494.684L725.094 491.552L726.164 484.027L736.35 486.322L726.479 476.399L735.138 468.954L742.926 474.127L752.476 478.25L755.865 467.373L751.972 466.13L745.998 465.508L745.093 460.543L743.885 451.241L749.622 443.84L736.612 446.214L727.416 443.986L724.44 434.585L727.77 430.065L735.358 427.464L733.787 421.524L743.72 419.712L743.198 415.527L746.812 408.521L754.528 406.625L755.583 403.016L747.319 404.501Z" fill="#CCCBCC"/>
<path d="M747.319 404.501L739.344 396.943L731.111 396.004L727.265 403.059L716.197 405.319L716.143 396.782L723.799 395.874L726.007 390.589L734.947 390.175L745.59 386.731L746.017 381.036L738.556 378.979L733.328 370.41L723.023 366.184L713.692 357.867L706.033 350.718L697.042 350.856L679.05 338.096L679.765 336.824L673.265 332.002L664.147 330.248L656.871 327.181L644.926 318.613L632.859 315.437L628.434 317.957L614.346 311.732L595.601 308.07L596.561 313.339L601.4 314.409L606.8 321.242L607.834 326.912L600.304 323.156L597.618 328.535L598.48 333.26L607.858 339.119L608.807 344.324L596.223 338.313L585.387 329.775L579.235 330.897L582.028 334.143L591.234 345.772L578.749 338.286L573.357 337.557L574.478 343.707L587.831 356.659L588.127 365.618L583.171 371.404L586.179 379.867L584.013 376.027L577.995 375.983L579.915 365.539L575.061 358.118L569.293 353.267L561.951 360.351L555.767 359.399L554.718 367.041C554.718 367.041 549.555 367.983 549.889 368.575C550.222 369.168 551.267 376.135 551.267 376.135L554.588 376.588L549.452 384.607L541.268 381.706L534.786 383.7L532.118 380.687L537.078 376.613L546.039 376.6L543.35 370.091L535.2 367.342L535.214 364.741L543.294 362.613L554.047 351.902L561.328 342.711L561.429 337L563.922 332.79L570.947 328.091L570.229 324.151L573.591 322.396L584.018 313.652L584.227 298.308L580.08 293.86L575.76 298.065L574.02 302.618L570.148 304.624L564.959 301.177L558.401 309.884L552.286 311.165L546.674 319.699L536.845 330.121L530.339 333.749L529.612 334.212L530.277 346.107L536.689 349.091L533.837 356.693L523.925 368.265L511.789 370.479L504.058 381.652L502.785 388.066L496.722 402.202L503.275 406.865L510.285 408.68L505.827 413.076L506.574 417.176L511.554 416.59L513.85 420.242L522.855 417.788L526.156 423.532L527.191 429.209L539.392 427.306L540.943 435.818L546.318 437.601L549.622 435.616L559.869 444.261L587.27 445.121L591.756 430.866L598.813 432.028L605.504 443.259L618.141 454.878L628.736 471.991L636.494 484.5L646.337 487.594L653.907 486.213L657.777 491.365L669.562 497.033L671.284 506.483L681.179 512.496L679.55 519.635L685.504 518.789L691.002 514.121L691.499 510.125L687.535 507.176L688.524 500.529L684.176 491.431L681.558 485.314L692.085 485.354L709.806 504.833L715.811 517.662L720.778 516.755L722.478 532.803C726.958 536.882 730.788 541.621 733.838 546.855C738.827 555.468 740.197 544.231 740.197 544.231L738.002 534.868L734.57 535.494C734.57 535.494 733.408 531.8 733.062 529.903C732.717 528.006 740.872 528.478 740.872 528.478L741.099 515.009L736.345 511.723L732.928 505.016L736.73 495.039L729.332 494.684L725.094 491.552L726.164 484.027L736.35 486.322L726.479 476.399L735.138 468.954L742.926 474.127L752.476 478.25L755.865 467.373L751.972 466.13L745.998 465.508L745.093 460.543L743.885 451.241L749.622 443.84L736.612 446.214L727.416 443.986L724.44 434.585L727.77 430.065L735.358 427.464L733.787 421.524L743.72 419.712L743.198 415.527L746.812 408.521L754.528 406.625L755.583 403.016L747.319 404.501Z" stroke="#F6F4F0" stroke-width="5" stroke-linecap="round" stroke-linejoin="round"/>
</g>
<path d="M691.686 569.761L698.391 558.278L697.613 554.012L688.536 549.802L680.848 558.572L663.088 549.6L660.808 558.563L655.09 553.988L654.529 548.232L646.662 539.904L652.806 538.783L661.791 531.767L656.718 525.37L651.898 525.761L647.813 522.105L652.623 516.346L659.764 517.972L663.285 510.495L672.662 513.666L679.634 519.725L681.263 512.586L671.368 506.572L669.646 497.123L657.854 491.418L653.985 486.266L646.415 487.647L636.572 484.554L630.386 474.567L618.218 454.931L605.581 443.312L598.89 432.081L591.834 430.92L587.347 445.174L559.946 444.315L549.7 435.669L546.395 437.654L541.021 435.871L539.476 427.396L527.275 429.298L526.24 423.622L522.939 417.878L513.934 420.331L511.638 416.68L506.658 417.265L505.911 413.166L510.369 408.77L503.359 406.955L496.806 402.292L502.869 388.155L504.142 381.742L511.873 370.568L524.009 368.354L533.922 356.783L536.773 349.18L530.361 346.197L525.117 353.162L515.068 354.341L512.907 352.295L506.51 345.809L497.842 347.39L495.097 352.938L494.832 361.293L486.097 366.957L485.611 373.234L480.785 376.232L472.278 368.02L457.342 370.745C456.549 370.89 445.018 369.088 445.018 369.088L427.981 365.519L423.245 370.289L422.692 377.066C422.692 377.066 411.994 396.111 411.393 396.401L420.94 380.187L406.144 380.1L397.789 385.207L388.954 383.236L372.866 390.564L357.276 403.344L344.778 404.483L332.805 402.273L314.491 403.654L310.108 417.161L317.832 430.022L320.862 446.645L331.838 455.908L317.354 471.251L307.469 477.778L299.513 476.135L285.194 478.905L283.436 491.603L279.989 498.578L282.195 507.135L270.364 522.647L270.825 534.121L279.774 540.307L289.892 540.414L294.626 555.667L302.853 556.119L308.244 560.671L324.274 559.249L335.873 562.991L344.541 561.41L344.834 573.733C344.834 573.733 355.891 579.857 356.421 580.084C356.95 580.31 371.453 583.042 371.453 583.042L388.167 578.198L390.829 581.174L399.215 578.954L410.87 586.591L417.188 582.832L426.996 588.373L431.41 587.568L440.513 591.916L445.872 590.938L447.838 588.326C447.838 588.326 450.533 592.393 451.251 592.75C451.97 593.108 457.786 592.865 457.786 592.865L460.067 586.583L463.303 579.316L464.658 586.745L483.099 583.381L501.34 597.635L507.485 596.514L512.343 599.052L522.749 597.154L529.456 591.041L538.405 597.227L547.728 592.109L560.162 593.258L581.397 591.825L602.717 601.612L613.771 605.949L672.417 595.251L683.12 586.945L681.914 580.33L690.99 584.533L695.286 581.308L693.907 573.741L708.817 556.369L691.686 569.761Z" fill="#CCCBCC" stroke="white" stroke-width="4" stroke-linecap="round" stroke-linejoin="round"/>
<path d="M556.656 282.091L553.502 275.502L545.387 273.895C545.387 273.895 543.193 266.312 542.519 265.293C541.845 264.275 535.967 260.631 535.967 260.631L527.122 259.473L519.598 254.837L516.129 259.052L517.796 268.196L513.702 268.943L508.296 270.575L505.356 262.482L503.213 258.968L509.067 254.483L509.528 246.257L502.361 239.912L507.086 232.861L504.113 229.986L495.505 233.667L488.713 238L484.984 238.523L485.63 235.799L492.435 231.133L496.284 226.36L495.566 222.42C495.566 222.42 486.093 223.172 486.185 224.132C486.278 225.091 485.435 230.277 485.435 230.277L477.8 237.528L477.224 241.538L485.726 246.176C485.726 246.176 487.414 265.245 487.558 266.037C487.703 266.829 483.616 270.338 483.616 270.338L479.033 271.986L474.582 269.042L467.961 272.045L465.93 276.974L459.813 285.42L450.626 287.742L437.763 279.83L428.024 282.583C428.024 282.583 426.359 289.563 425.849 290.309L412.627 280.344C412.627 280.344 401.171 280.932 399.593 281.22C398.015 281.508 393.559 284.762 393.559 284.762L387.669 292.678L395.579 305.242L392.351 318.365L390.463 324.08L374.065 327.071L366.03 325.856L357.444 335.969L360.322 351.756L356.446 350.15L338.592 341.571L309.718 347.589L303.79 352.576L302.383 360.974L296.805 382.187L302.196 386.739L303.804 395.563L314.384 403.561L332.698 402.181L344.672 404.39L357.17 403.252L372.76 390.471L388.847 383.143L397.682 385.114L406.038 380.007L420.833 380.094L422.588 376.988L423.141 370.21L427.877 365.441L444.914 369.01L457.238 370.667L472.21 367.936L480.717 376.147L485.543 373.149L486.029 366.872L494.764 361.208L495.029 352.853L497.775 347.305L506.443 345.724L510.291 349.565L511.27 354.644L514.948 354.214L525.319 352.99L532.671 343.2L531.682 326.482L532.706 325.837L530.266 323.413L531.924 323.111L536.033 318.861L533.091 315.087L524.026 311.851L518.997 308.585C519.294 307.78 519.532 306.986 519.699 306.542L520.312 307.474L528.06 307.563L535.65 310.414L546.305 307.329L549.936 299.344L543.886 297.188L533.487 299.085L527.763 297.689L520.514 302.766L521.46 297.734L525.04 292.357L531.366 288.605L542.511 285.648L555.369 292.75L566.506 292.018L567.826 286.895L556.656 282.091Z" fill="#CCCBCC" stroke="white" stroke-width="4" stroke-linecap="round" stroke-linejoin="round"/>
<path d="M485.492 230.302L486.242 224.157L478.491 218.736L469.471 214.846L464.44 214.945L463.205 208.171L453.264 207.22L447.958 203.133L439.15 209.305L428.217 212.801C428.217 212.801 416.265 213.186 416.039 213.88C415.812 214.575 411.385 224.988 411.385 224.988L416.039 213.88C416.039 213.88 408.324 214.469 404.77 211.046C402.281 208.5 400.092 205.676 398.246 202.63L392.394 206.634L388.49 197.583L388.659 186.151L382.153 183.433L380.995 194.06L376.339 196.216L367.18 186.163L359.808 179.689L353.15 176.675L337.196 169.16C337.196 169.16 327.244 159.251 323.008 171.747C318.773 184.243 311.638 189.78 311.638 189.78L308.028 194.997L304.701 187.463L301.909 170.383L304.861 166.916L303.053 155.229L293.828 161.793L286.093 165.809L281.687 179.636L276.325 185.503L265.024 184.304L260.879 195.484L245.286 199.304L235.679 194.868L227.081 208.452L213.205 218.147L200.054 219.246L200.476 212.658L209.815 199.554L211.02 193.799L216.028 183.769L208.343 177.352L210.638 172.052L220.158 177.826L225.173 174.959L225.371 167.104L228.46 159.031L220.578 153.303L222.577 146.427C222.577 146.427 214.868 141.645 215.155 143.222C215.443 144.799 208.159 147.75 208.159 147.75L203.123 145.139L198.794 148.181L188.809 143.491L186.325 149.358C186.325 149.358 184.013 156.291 179.42 148.988C174.827 141.684 168.491 140.887 168.038 141.946C167.585 143.005 157.503 149.402 154.92 150.85C152.336 152.297 138.512 165.858 121.28 164.149C104.047 162.44 96.6238 162.975 96.7477 154.714C96.8716 146.452 103.95 137.02 103.95 137.02L114.816 137.645L120.578 124.578L129.112 114.227L129.77 108.895L139.085 101.015L148.858 99.2331L155.796 94.3855L155.132 85.3891L147.39 82.2423L132.5 63.1328L125.794 58.4977L126.514 67.8067L120.638 65.9493L113.273 70.2215L119.692 76.8691L123.966 78.8008C123.413 78.9016 122.012 79.9082 118.376 83.9509C112.423 90.5715 116.523 96.9886 110.532 94.4988C104.54 92.009 101.019 83.5338 98.837 83.9316C96.6555 84.3294 97.4249 78.0006 95.0557 84.6211C92.6866 91.2416 88.3473 90.7262 90.1292 96.9126C91.911 103.099 84.3679 99.27 81.4413 101.103C78.5146 102.936 78.0625 107.585 76.2539 106.608C74.4453 105.631 59.5437 106.073 59.8313 107.65C60.119 109.227 55.0723 110.147 55.0723 110.147L45.4718 109.292C45.4718 109.292 32.6275 113.887 32.5999 108.38C32.5723 102.872 27.5217 103.771 27.5217 103.771L27.2083 110.993L34.7528 114.829L42.7754 115.972L47.9688 121.214L39.7149 125.971L32.5613 140.306C32.5613 140.306 24.9079 143.001 24.5046 144.373C24.1012 145.746 15.197 163.006 16.1463 164.463C17.0957 165.92 28.909 175.489 28.909 175.489L39.4306 170.641L44.8724 164.76L63.8182 163.257L69.5616 176.87L67.0111 186.122L77.9013 192.277L73.5452 196.984L75.499 207.698L83.9819 207.781L84.1343 217.517C84.1343 217.517 74.5087 218.296 74.7393 219.56C74.97 220.825 75.4602 228.869 75.6908 230.134C75.9215 231.399 75.2043 243.576 75.2043 243.576C75.2043 243.576 57.4904 242.893 57.7833 244.5C58.0763 246.106 56.7289 254.786 56.7289 254.786C56.7289 254.786 63.0647 262.748 65.1277 263.348C67.1906 263.948 74.2432 263.315 76.1995 263.289C78.1558 263.263 87.0636 267.489 87.3221 268.906C87.5806 270.324 92.5128 272.361 94.0908 272.073L101.973 270.635L97.1914 283.719L107.942 288.202L110.372 282.78C110.659 284.357 104.777 293.301 104.777 293.301L95.9386 291.27C95.9386 291.27 85.2969 293.646 90.2768 295.945C95.2568 298.244 101.503 296.774 101.503 296.774C101.503 296.774 103.05 290.957 105.398 296.71C107.747 302.462 106.663 303.644 106.663 303.644L109.678 311.235L107.244 317.545L95.2293 310.618L84.2549 312.942L82.1371 331.736L90.6531 339.128L102.33 351.328L111.247 362.732L97.4865 365.888L77.0824 364.749L75.4167 369.912L86.1737 377.068L88.41 382.203L81.8739 389.253L83.8277 399.967L98.1199 408.626L108.41 423.85L112.433 445.91L129.795 464.321L138.037 464.853L145.023 470.984L165.508 470.748L161.349 478.349L162.409 484.164L172.815 482.266L180.33 489.525L185.718 488.707L191.485 500.679L213.653 507.901L218.817 516.565C218.817 516.565 223.231 515.76 225.234 516.897C227.237 518.034 244.889 530.902 245.521 530.787C246.154 530.671 257.92 528.195 257.92 528.195L270.89 534.136L270.428 522.662L282.258 507.152L280.051 498.594L283.498 491.62L285.255 478.922L299.574 476.153L307.53 477.797L317.415 471.27L331.899 455.929L320.923 446.665L317.891 430.042L310.166 417.181L314.548 403.675L303.968 395.676L302.359 386.852L296.968 382.3L302.544 361.088L303.951 352.69L309.879 347.704L338.753 341.687L360.485 351.874L357.606 336.086L366.19 325.974L374.226 327.19L390.624 324.2L392.512 318.485L395.739 305.362L387.828 292.798L393.718 284.882L399.752 281.341L412.786 280.466L426.009 290.432L428.184 282.705L437.923 279.953L450.787 287.866L459.974 285.545L466.09 277.1L468.121 272.17L474.742 269.168L479.193 272.112L483.777 270.464L487.718 266.163L485.885 246.303L477.383 241.665L477.959 237.654L485.492 230.302Z" fill="#CCCBCC" stroke="white" stroke-width="4" stroke-linecap="round" stroke-linejoin="round"/>
<path d="M314.943 156.196L314.369 153.049L310.523 149.838L307.432 154.315L311.474 156.829L314.943 156.196Z" fill="#126F80" stroke="white" stroke-width="5" stroke-linecap="round" stroke-linejoin="round"/>
<defs>
<filter id="filter0_d_992_10756" x="490.222" y="291.36" width="272.144" height="269.25" filterUnits="userSpaceOnUse" color-interpolation-filters="sRGB">
<feFlood flood-opacity="0" result="BackgroundImageFix"/>
<feColorMatrix in="SourceAlpha" type="matrix" values="0 0 0 0 0 0 0 0 0 0 0 0 0 0 0 0 0 0 127 0" result="hardAlpha"/>
<feOffset dy="4"/>
<feGaussianBlur stdDeviation="2"/>
<feComposite in2="hardAlpha" operator="out"/>
<feColorMatrix type="matrix" values="0 0 0 0 0 0 0 0 0 0 0 0 0 0 0 0 0 0 0.05 0"/>
<feBlend mode="normal" in2="BackgroundImageFix" result="effect1_dropShadow_992_10756"/>
<feBlend mode="normal" in="SourceGraphic" in2="effect1_dropShadow_992_10756" result="shape"/>
</filter>
</defs>
</svg>
