<svg width="159" height="45" viewBox="0 0 159 45" fill="none" xmlns="http://www.w3.org/2000/svg">
<g clip-path="url(#clip0_472_16143)">
<path fill-rule="evenodd" clip-rule="evenodd" d="M24.6047 17.5935C24.6047 18.779 24.2127 19.6987 23.4288 20.3528C22.6449 21.0068 21.4988 21.3338 19.9905 21.3338H15.9126V13.8554H19.9973C21.501 13.8554 22.6472 14.1771 23.4357 14.8206C24.2242 15.464 24.6162 16.3883 24.6116 17.5935M0 8.03482L4.26353 3.81302H49.2071L53.473 0L50.7796 3.81302H50.7956L41.8399 16.4852L37.118 9.80621H31.3874L38.9701 20.5367L26.7846 37.7782H0V8.03482ZM20.2747 9.81075H10.911V31.2627H15.9218V25.2854H20.5314L24.7079 31.2627H30.0877L25.2236 24.3611C26.5829 23.8288 27.7416 22.8913 28.5395 21.678C29.3374 20.4648 29.735 19.0359 29.6774 17.5889C29.7349 16.1403 29.3433 14.7089 28.5552 13.4873C27.7672 12.2656 26.6206 11.3123 25.2695 10.7555C23.8574 10.1272 22.1925 9.81226 20.2747 9.81075Z" fill="white"/>
<path fill-rule="evenodd" clip-rule="evenodd" d="M62.5486 3.81299V33.5541L58.2874 37.7759H34.2053L29.6094 41.8819L41.8315 24.5882L46.5489 31.2604H52.2749L44.6945 20.5367L56.5155 3.81299H62.5486Z" fill="white"/>
<path fill-rule="evenodd" clip-rule="evenodd" d="M153.152 12.4792L150.859 6.99472L148.567 12.4792M154.208 14.9977H147.492L146.211 18.0704H142.772L149.218 3.7381H152.526L158.992 18.0704H155.487L154.208 14.9977ZM136.249 18.3157C135.127 18.3205 134.01 18.1676 132.932 17.8615C132.008 17.6227 131.136 17.217 130.36 16.6647L131.495 14.1666C132.169 14.6425 132.916 15.009 133.707 15.2521C134.534 15.5203 135.399 15.6583 136.269 15.6609C137.221 15.6609 137.924 15.5208 138.376 15.2407C138.582 15.1345 138.755 14.9745 138.876 14.778C138.998 14.5815 139.062 14.356 139.064 14.1257C139.066 13.963 139.031 13.8018 138.961 13.6546C138.892 13.5074 138.789 13.378 138.66 13.2763C138.355 13.03 138.004 12.8456 137.626 12.7336C137.208 12.5973 136.64 12.4459 135.923 12.2794C135.006 12.0744 134.102 11.815 133.216 11.5027C132.516 11.2454 131.894 10.8155 131.408 10.2536C130.903 9.6783 130.652 8.91372 130.654 7.9599C130.646 7.15143 130.886 6.35962 131.341 5.68889C131.858 4.96673 132.574 4.40826 133.404 4.08102C134.468 3.66091 135.608 3.46075 136.753 3.49283C137.666 3.49142 138.575 3.60126 139.46 3.81985C140.277 4.01208 141.058 4.3301 141.775 4.76232L140.742 7.28087C139.529 6.56039 138.146 6.16878 136.732 6.14536C135.797 6.14536 135.105 6.29676 134.656 6.59957C134.449 6.72284 134.279 6.89716 134.161 7.10539C134.044 7.31363 133.982 7.54862 133.984 7.7873C133.984 8.27784 134.242 8.64272 134.759 8.88193C135.518 9.20019 136.307 9.44066 137.115 9.59957C138.033 9.80662 138.938 10.0667 139.825 10.3785C140.521 10.6329 141.141 11.0552 141.631 11.6071C142.135 12.1658 142.387 12.9228 142.385 13.8781C142.393 14.6774 142.153 15.4598 141.697 16.1196C141.176 16.8422 140.455 17.3998 139.621 17.7252C138.549 18.1486 137.402 18.3496 136.249 18.3157ZM121.638 18.3157C119.574 18.3157 117.969 17.7495 116.825 16.617C115.68 15.4845 115.105 13.8668 115.098 11.7638V3.7381H118.447V11.6435C118.447 14.2173 119.522 15.5004 121.67 15.4928C122.719 15.4928 123.518 15.1825 124.068 14.5617C124.618 13.941 124.89 12.9682 124.884 11.6435V3.74037H128.189V11.7661C128.189 13.8691 127.614 15.4868 126.463 16.6193C125.313 17.7517 123.704 18.3172 121.638 18.3157ZM109.054 10.6783H112.112V16.4921C111.29 17.0985 110.367 17.556 109.384 17.8433C108.375 18.1551 107.324 18.3143 106.267 18.3157C104.857 18.3376 103.465 18.0097 102.216 17.3619C101.046 16.7578 100.068 15.8444 99.3899 14.723C98.7184 13.5602 98.3652 12.2439 98.3652 10.9043C98.3652 9.56466 98.7184 8.2483 99.3899 7.08556C100.07 5.96026 101.053 5.0455 102.23 4.44438C103.494 3.79817 104.899 3.47131 106.322 3.49283C107.503 3.47679 108.676 3.69212 109.774 4.12644C110.777 4.52697 111.67 5.15737 112.38 5.96596L110.232 7.93038C109.76 7.41536 109.182 7.00538 108.538 6.72746C107.894 6.44953 107.198 6.30997 106.496 6.31796C105.641 6.30192 104.796 6.4987 104.039 6.89026C103.338 7.26136 102.759 7.82317 102.37 8.50948C101.977 9.24407 101.772 10.0627 101.772 10.894C101.772 11.7253 101.977 12.544 102.37 13.2786C102.76 13.9649 103.336 14.529 104.034 14.9069C104.779 15.3045 105.615 15.5055 106.461 15.4906C107.368 15.5051 108.263 15.2934 109.065 14.8751L109.054 10.6783ZM92.1304 12.4792L89.8382 6.99472L87.546 12.4792H92.1304ZM93.1848 14.9977H86.4686L85.1781 18.0704H81.7398L88.1878 3.7381H91.4932L97.9618 18.0704H94.4639L93.1848 14.9977ZM77.6138 8.9387C77.6138 8.13174 77.3525 7.51402 76.8298 7.08556C76.3072 6.6571 75.5431 6.44211 74.5376 6.4406H71.8099V11.4368H74.5376C75.5431 11.4368 76.3072 11.218 76.8298 10.7805C77.0937 10.5531 77.3015 10.2689 77.4373 9.94964C77.5732 9.63041 77.6336 9.28461 77.6138 8.9387ZM68.4609 3.7381H74.721C75.8713 3.71025 77.0143 3.92789 78.0722 4.37625C78.9611 4.75223 79.7191 5.37841 80.2521 6.17716C80.7767 7.00355 81.043 7.96509 81.0177 8.94098C81.0555 9.908 80.789 10.8628 80.2552 11.6732C79.7213 12.4836 78.9465 13.1097 78.0378 13.4648L81.2813 18.0704H77.6848L74.8952 14.078H71.8167V18.0704H68.4701L68.4609 3.7381Z" fill="white"/>
<path fill-rule="evenodd" clip-rule="evenodd" d="M110.432 28.3489C110.432 27.4632 110.141 26.741 109.515 26.2323C108.889 25.7236 108.05 25.5101 106.994 25.5101H104.266L103.922 25.8508V30.847L104.266 31.1876H106.994C108.043 31.1876 108.898 30.9605 109.515 30.4541C109.819 30.1953 110.059 29.8715 110.218 29.5072C110.377 29.1429 110.45 28.7476 110.432 28.3512M126.977 35.1642V37.1445H116.465V23.4957H126.709V25.4761H119.449L119.106 25.8167V28.928L119.449 29.2686H125.822V31.1672H119.449L119.106 31.5079V34.8076L119.449 35.1483L126.977 35.1642ZM134.741 37.3898C134.193 37.3834 133.646 37.3462 133.102 37.2785C132.569 37.1972 132.04 37.085 131.52 36.9424C130.725 36.7287 129.969 36.3914 129.281 35.9431L130.131 34.0718C130.74 34.4605 131.4 34.7625 132.093 34.9689C132.953 35.2558 133.855 35.3993 134.762 35.3935C135.733 35.3935 136.513 35.2527 137.054 34.9234C137.309 34.7856 137.522 34.5824 137.671 34.3352C137.819 34.0879 137.899 33.8056 137.9 33.5177C137.902 33.3057 137.856 33.0959 137.765 32.904C137.674 32.7121 137.541 32.543 137.375 32.4094C137.036 32.1351 136.647 31.9291 136.229 31.8031C135.802 31.6645 135.227 31.5124 134.498 31.3489L133.003 30.9628C132.563 30.8356 132.174 30.7107 131.83 30.5835C131.183 30.3465 130.609 29.9493 130.161 29.4299C129.725 28.9325 129.492 28.2558 129.492 27.361C129.482 26.6258 129.696 25.9048 130.106 25.2921C130.583 24.6241 131.245 24.108 132.013 23.8069C133.033 23.4056 134.125 23.2139 135.222 23.2437C136.105 23.268 136.984 23.3737 137.847 23.5593C138.251 23.6646 138.649 23.7928 139.039 23.9431C139.247 24.0294 139.559 24.1702 139.814 24.3178L139.046 26.2073C137.867 25.5756 136.551 25.2373 135.211 25.2217C134.25 25.2217 133.473 25.3739 132.941 25.7327C132.688 25.8869 132.48 26.1031 132.336 26.3605C132.191 26.6178 132.117 26.9077 132.119 27.202C132.119 27.847 132.476 28.3216 133.093 28.6055C133.425 28.7535 133.767 28.8779 134.117 28.9779C134.519 29.0983 134.984 29.2164 135.523 29.3345L137.015 29.7206C137.457 29.8477 137.847 29.9726 138.191 30.0998C138.834 30.3359 139.408 30.726 139.862 31.2353C140.295 31.7168 140.529 32.3867 140.529 33.2792C140.534 34.0087 140.313 34.7222 139.896 35.3231C139.412 35.9923 138.742 36.5082 137.968 36.8084C136.943 37.215 135.845 37.4105 134.741 37.3829V37.3898ZM147.923 37.3898C147.375 37.3833 146.828 37.3461 146.285 37.2785C145.751 37.197 145.223 37.0848 144.703 36.9424C143.909 36.7332 143.153 36.4013 142.463 35.959L143.316 34.0877C143.924 34.4764 144.583 34.7784 145.276 34.9848C146.135 35.2717 147.037 35.4152 147.944 35.4094C148.916 35.4094 149.698 35.2686 150.236 34.9393C150.491 34.8014 150.704 34.5981 150.852 34.3508C151.001 34.1035 151.079 33.8213 151.08 33.5336C151.083 33.3218 151.037 33.112 150.947 32.9201C150.856 32.7282 150.723 32.559 150.557 32.4253C150.219 32.1514 149.829 31.9455 149.411 31.819C148.982 31.6804 148.409 31.5283 147.68 31.3648L146.186 30.9787C145.744 30.8515 145.356 30.7266 145.012 30.5994C144.366 30.3624 143.791 29.9652 143.344 29.4458C142.908 28.9484 142.672 28.2717 142.672 27.3769C142.663 26.6388 142.881 25.9156 143.298 25.3035C143.774 24.6354 144.437 24.1193 145.205 23.8182C146.225 23.4165 147.317 23.2248 148.414 23.255C149.296 23.2793 150.174 23.385 151.036 23.5707C151.442 23.6756 151.84 23.8038 152.231 23.9545C152.439 24.0408 152.749 24.1816 153.003 24.3292L152.228 26.2187C151.049 25.5872 149.733 25.2489 148.393 25.2331C147.431 25.2331 146.656 25.3852 146.124 25.744C145.871 25.8979 145.662 26.114 145.518 26.3715C145.373 26.6289 145.299 26.919 145.301 27.2134C145.3 27.5174 145.393 27.8144 145.567 28.0651C145.74 28.3157 145.987 28.5082 146.273 28.6169C146.606 28.7648 146.949 28.8893 147.3 28.9893C147.701 29.1097 148.164 29.2278 148.705 29.3459L150.197 29.7319C150.64 29.8591 151.027 29.984 151.373 30.1112C152.016 30.3473 152.59 30.7374 153.044 31.2467C153.475 31.7281 153.711 32.3981 153.711 33.2906C153.716 34.0199 153.495 34.7331 153.079 35.3345C152.593 36.0036 151.923 36.5194 151.149 36.8197C150.123 37.2223 149.026 37.4139 147.923 37.3829V37.3898ZM92.0895 31.174C93.137 31.174 93.9943 30.9469 94.6109 30.4518C94.9154 30.1957 95.1564 29.8736 95.3153 29.5106C95.4743 29.1476 95.547 28.7532 95.5278 28.358C95.5278 27.4723 95.2367 26.7501 94.6109 26.2414C93.9852 25.7327 93.1462 25.5192 92.0895 25.5192H89.3618L89.0179 25.8599V30.8334L89.3618 31.174H92.0895ZM92.2752 23.498C93.3716 23.4709 94.4612 23.6769 95.4705 24.1021C96.3149 24.4454 97.0321 25.0381 97.5243 25.7996C98.0165 26.5612 98.2598 27.4545 98.2212 28.358C98.2436 29.2643 97.9973 30.1573 97.5129 30.9265C97.0193 31.6723 96.3121 32.2551 95.482 32.6002C94.4665 33.0203 93.3729 33.223 92.2729 33.1952H89.3618L89.0179 33.5359V37.1468H86.3567V23.498H92.2752ZM79.4387 30.1384V30.529L84.108 37.1354H81.1281L78.0909 32.8364H77.527L69.4057 44.3277H66.4258L76.1769 30.529V30.1293L71.5053 23.5185H74.4852L77.5247 27.822H78.0886L84.1607 19.2285H87.1406L79.4387 30.1384ZM101.288 23.498H107.207C108.299 23.4696 109.386 23.6725 110.393 24.093C111.221 24.4434 111.928 25.0259 112.426 25.769C112.916 26.5403 113.166 27.4377 113.144 28.3489C113.182 29.2489 112.935 30.1383 112.439 30.893C111.943 31.6477 111.221 32.2302 110.375 32.5593L110.23 33.068L113.098 37.1377H110.347L107.642 33.2929L107.36 33.1452H104.282L103.938 33.4859V37.1377H101.277L101.288 23.498Z" fill="#D3D916"/>
<path fill-rule="evenodd" clip-rule="evenodd" d="M110.088 28.3467C110.088 27.5427 109.826 26.9258 109.302 26.4958C108.778 26.0658 108.014 25.8508 107.01 25.8508H104.282V30.8471H107.01C108.014 30.8471 108.778 30.629 109.302 30.193C109.566 29.9656 109.775 29.6811 109.911 29.3614C110.047 29.0418 110.108 28.6954 110.088 28.349M127.321 34.8077V37.4693H116.123V23.1393H127.055V25.8009H119.449V28.9122H126.166V31.492H119.449V34.8077H127.321ZM134.741 37.7146C133.619 37.7205 132.502 37.5676 131.424 37.2604C130.5 37.0216 129.628 36.6159 128.852 36.0636L129.998 33.5655C130.672 34.0432 131.419 34.4098 132.21 34.651C133.038 34.9192 133.902 35.0572 134.773 35.0598C135.724 35.0598 136.426 34.9213 136.88 34.6396C137.086 34.5336 137.259 34.3736 137.38 34.1771C137.501 33.9806 137.566 33.7549 137.567 33.5246C137.57 33.3619 137.535 33.2008 137.465 33.0536C137.395 32.9064 137.292 32.777 137.164 32.6752C136.858 32.4297 136.507 32.2454 136.13 32.1325C135.71 31.9962 135.142 31.8448 134.427 31.6783C133.507 31.4752 132.6 31.2174 131.711 30.9061C131.01 30.6497 130.387 30.2197 129.902 29.6571C129.398 29.0848 129.146 28.3209 129.148 27.3656C129.139 26.557 129.379 25.765 129.836 25.0946C130.35 24.3702 131.067 23.8112 131.899 23.4867C132.965 23.0638 134.108 22.8621 135.257 22.894C136.162 22.8959 137.065 23.0072 137.943 23.2256C138.76 23.4171 139.541 23.7343 140.258 24.1658L139.224 26.6843C138.011 25.9648 136.629 25.5733 135.215 25.5488C134.28 25.5488 133.586 25.6987 133.139 26.003C132.932 26.1261 132.762 26.3004 132.644 26.5087C132.526 26.7169 132.465 26.952 132.467 27.1907C132.467 27.6813 132.725 28.0462 133.242 28.2854C134.004 28.6032 134.796 28.8436 135.607 29.003C136.525 29.208 137.429 29.4674 138.314 29.7797C139.01 30.0352 139.632 30.4573 140.123 31.0083C140.627 31.57 140.879 32.327 140.877 33.2793C140.885 34.0787 140.645 34.8612 140.189 35.5208C139.669 36.2448 138.948 36.8033 138.113 37.1287C137.041 37.5525 135.894 37.755 134.741 37.7237V37.7146ZM147.923 37.7146C146.802 37.7207 145.686 37.5677 144.609 37.2604C143.681 37.023 142.805 36.618 142.026 36.0658L143.172 33.5677C143.845 34.0459 144.592 34.4125 145.384 34.6533C146.21 34.9215 147.074 35.0595 147.944 35.062C148.895 35.062 149.599 34.9235 150.053 34.6419C150.259 34.5357 150.432 34.3757 150.553 34.1792C150.675 33.9827 150.739 33.7571 150.741 33.5268C150.744 33.3643 150.709 33.2033 150.639 33.0561C150.57 32.9089 150.467 32.7794 150.339 32.6775C150.033 32.4329 149.682 32.2487 149.306 32.1347C148.885 31.9985 148.317 31.8471 147.6 31.6805C146.683 31.4746 145.779 31.2145 144.893 30.9016C144.193 30.644 143.571 30.2141 143.085 29.6525C142.582 29.0802 142.33 28.3164 142.33 27.3611C142.321 26.5524 142.561 25.76 143.018 25.0901C143.532 24.3657 144.249 23.8067 145.081 23.4822C146.148 23.0591 147.291 22.8574 148.439 22.8895C149.346 22.8928 150.249 23.0056 151.128 23.2256C151.944 23.4169 152.724 23.7342 153.441 24.1658L152.409 26.6843C151.196 25.9648 149.814 25.5733 148.4 25.5488C147.463 25.5488 146.771 25.7002 146.323 26.003C146.116 26.1253 145.945 26.2993 145.827 26.5078C145.709 26.7163 145.649 26.9518 145.652 27.1907C145.652 27.6813 145.909 28.0469 146.427 28.2854C147.189 28.5999 147.981 28.8366 148.792 28.9917C149.709 29.1967 150.613 29.456 151.499 29.7683C152.195 30.0244 152.816 30.4464 153.308 30.9969C153.809 31.5586 154.061 32.3156 154.062 33.268C154.069 34.0672 153.829 34.8494 153.374 35.5094C152.853 36.2329 152.132 36.7913 151.298 37.1173C150.226 37.545 149.078 37.7513 147.923 37.7237V37.7146ZM92.0895 30.8244C93.0966 30.8244 93.8606 30.6094 94.3817 30.1794C94.9028 29.7494 95.1649 29.1385 95.168 28.3467C95.168 27.5427 94.9059 26.9258 94.3817 26.4958C93.8576 26.0658 93.0935 25.8508 92.0895 25.8508H89.3618V30.8244H92.0895ZM92.2752 23.1484C93.4205 23.1219 94.5583 23.3379 95.6126 23.782C96.5017 24.1588 97.2596 24.7857 97.7926 25.5851C98.2923 26.42 98.5559 27.3727 98.5559 28.3433C98.5559 29.3139 98.2923 30.2666 97.7926 31.1014C97.2628 31.9031 96.5038 32.5301 95.6126 32.9023C94.5598 33.3398 93.4257 33.5526 92.2843 33.5268H89.3618V37.4784H86.0128V23.1484H92.2752ZM79.7092 30.3247L84.7521 37.467H80.9424L77.8021 33.0227L69.5913 44.6593H65.7656L75.895 30.3247L70.8521 23.1779H74.6663L77.809 27.6268L83.9842 18.8879H87.7916L79.7092 30.3247ZM100.933 23.1484H107.195C108.341 23.1219 109.478 23.3379 110.533 23.782C111.435 24.1541 112.201 24.791 112.727 25.607C113.253 26.423 113.514 27.3791 113.476 28.3467C113.514 29.3141 113.248 30.2694 112.714 31.0802C112.18 31.8911 111.405 32.5176 110.496 32.8728L113.74 37.4784H110.15L107.36 33.486H104.282V37.4784H100.933V23.1484Z" fill="white"/>
</g>
<defs>
<clipPath id="clip0_472_16143">
<rect width="159" height="45" fill="white"/>
</clipPath>
</defs>
</svg>
