<svg width="31" height="31" viewBox="0 0 31 31" fill="none" xmlns="http://www.w3.org/2000/svg">
<g clip-path="url(#clip0_353_13068)">
<path d="M15.4896 31C24.0463 31.0093 31.0187 24.0503 31.0002 15.4894C30.9827 6.96174 24.1674 0.0517921 15.656 0.00094986C6.95689 -0.0517426 0.000210313 6.88039 0.00390772 15.5005C0.00390772 24.0494 6.94303 30.9908 15.4896 31ZM2.22883 15.5097C2.19925 8.25221 8.1447 2.22877 15.3639 2.19827C22.8086 2.16591 28.7568 8.02757 28.8003 15.4404C28.8446 22.7201 22.9011 28.7519 15.6588 28.7777C8.23713 28.7999 2.26026 22.9004 2.22883 15.5097Z" fill="black"/>
<path d="M13.9368 15.5042C12.6427 16.7983 11.3717 18.0565 10.1128 19.3266C9.47219 19.9737 9.74303 20.9988 10.6036 21.2087C11.0343 21.3141 11.393 21.1662 11.7008 20.8574C12.9062 19.6483 14.113 18.4407 15.3215 17.2347C15.3705 17.1866 15.4222 17.1422 15.4999 17.0673C15.5923 17.1542 15.6848 17.2374 15.7689 17.3234C16.9847 18.5381 18.2002 19.7531 19.4154 20.9683C19.7575 21.3104 20.1679 21.4102 20.6171 21.2457C20.8219 21.1778 21.0008 21.0486 21.1298 20.8757C21.2587 20.7027 21.3314 20.4944 21.3381 20.2787C21.3695 19.8831 21.1948 19.5725 20.9147 19.2989C19.7131 18.1212 18.5114 16.9351 17.3144 15.7538C17.2414 15.6817 17.1563 15.6197 17.0454 15.5273C17.1563 15.4108 17.2377 15.3211 17.3227 15.2361C18.5552 14.0202 19.7877 12.8049 21.0201 11.5902C21.3501 11.263 21.474 10.871 21.3187 10.4209C21.2563 10.2148 21.1342 10.0318 20.9679 9.89504C20.8016 9.75831 20.5984 9.67396 20.3842 9.65267C19.9876 9.59813 19.6706 9.7599 19.3933 10.0382C18.1984 11.2399 17.0004 12.4398 15.7994 13.6378C15.6813 13.7744 15.5494 13.8983 15.4056 14.0076C15.3474 13.8929 15.3132 13.7561 15.2263 13.6683C14.0339 12.4468 12.8368 11.2297 11.6352 10.0169C11.3089 9.68503 10.9197 9.55469 10.4696 9.69242C10.2729 9.74659 10.0964 9.85725 9.96204 10.0107C9.82764 10.1642 9.7412 10.3537 9.71344 10.5558C9.64041 10.9635 9.79293 11.2953 10.0832 11.5847C11.2762 12.7901 12.4668 13.9977 13.6549 15.2074C13.7418 15.2934 13.8259 15.3868 13.9368 15.5042Z" fill="black"/>
</g>
<defs>
<clipPath id="clip0_353_13068">
<rect width="31" height="31" fill="white" transform="matrix(1 0 0 -1 0 31)"/>
</clipPath>
</defs>
</svg>
