<svg width="18" height="19" viewBox="0 0 18 19" fill="none" xmlns="http://www.w3.org/2000/svg">
<path d="M0 11.1738C0.68864 10.6849 1.35851 10.1991 2.04001 9.73256C2.20936 9.61662 2.26042 9.49268 2.25929 9.28479C2.25103 7.52251 2.25404 5.75984 2.25479 3.99756C2.25479 2.69784 3.2885 1.59882 4.51333 1.59642C4.75026 1.59642 4.98682 1.59642 5.23051 1.59642C5.25041 1.4365 5.25754 1.28698 5.28983 1.14186C5.35964 0.815356 5.53222 0.524088 5.77892 0.316398C6.02561 0.108708 6.3316 -0.00291395 6.64608 5.78414e-05H11.3111C12.1338 5.78414e-05 12.7214 0.608939 12.7503 1.49048C12.7503 1.51686 12.7537 1.54285 12.7575 1.59682C12.9678 1.59682 13.178 1.60602 13.3875 1.59682C14.4081 1.54485 15.5241 2.32444 15.7306 3.69532C15.7435 3.80134 15.7484 3.9083 15.7452 4.01515C15.7452 5.80435 15.7442 7.59354 15.7422 9.38274C15.7422 9.52626 15.7824 9.60822 15.895 9.68658C16.5934 10.1747 17.287 10.6713 18 11.1774L14.6255 18.2373C14.2782 18.0714 13.956 17.8775 13.6117 17.7575C12.0084 17.2134 10.5628 17.5317 9.29138 18.713C8.87835 19.0952 9.01765 19.094 8.60687 18.719C7.78869 17.9722 6.83458 17.5792 5.76407 17.5724C4.96354 17.5676 4.2197 17.8399 3.54158 18.2997C3.49427 18.3316 3.44733 18.364 3.37636 18.4128C2.25179 16.0029 1.13096 13.5981 0 11.1738ZM3.75485 8.6875C3.84009 8.64033 3.89528 8.61194 3.9486 8.58036C5.5757 7.61447 7.20281 6.64764 8.82991 5.67988C8.94969 5.60872 9.03868 5.59712 9.16784 5.67548C10.7852 6.67016 12.4063 7.65951 14.0311 8.64353C14.0938 8.68351 14.1584 8.71749 14.247 8.76866V4.05673C14.247 3.49263 13.968 3.19238 13.4431 3.19238H4.5659C4.03647 3.19238 3.75373 3.49023 3.75335 4.04874C3.75335 5.17215 3.75335 6.29582 3.75335 7.41977L3.75485 8.6875Z" fill="black"/>
</svg>
