<svg width="14" height="14" viewBox="0 0 14 14" fill="none" xmlns="http://www.w3.org/2000/svg">
<path d="M13.6145 3.88557L12.354 5.14612C12.2255 5.27464 12.0177 5.27464 11.8892 5.14612L8.85399 2.11096C8.72548 1.98245 8.72548 1.77463 8.85399 1.64612L10.1145 0.385572C10.6259 -0.125757 11.4571 -0.125757 11.9712 0.385572L13.6145 2.02893C14.1286 2.54026 14.1286 3.37151 13.6145 3.88557ZM7.77118 2.72893L0.59071 9.9094L0.011022 13.2317C-0.0682749 13.6801 0.322741 14.0684 0.771179 13.9918L4.09345 13.4094L11.2739 6.22893C11.4024 6.10042 11.4024 5.89261 11.2739 5.76409L8.23876 2.72893C8.10751 2.60042 7.8997 2.60042 7.77118 2.72893ZM3.39345 9.29417C3.24305 9.14378 3.24305 8.90315 3.39345 8.75276L7.60438 4.54182C7.75478 4.39143 7.9954 4.39143 8.14579 4.54182C8.29618 4.69221 8.29618 4.93284 8.14579 5.08323L3.93485 9.29417C3.78446 9.44456 3.54384 9.44456 3.39345 9.29417ZM2.40634 11.5938H3.71884V12.5864L1.95516 12.8953L1.10477 12.045L1.41376 10.2813H2.40634V11.5938Z" fill="black"/>
</svg>
