<svg width="16" height="17" viewBox="0 0 16 17" fill="none" xmlns="http://www.w3.org/2000/svg">
<path d="M8 0.265625C3.58065 0.265625 0 3.95117 0 8.5C0 13.0488 3.58065 16.7344 8 16.7344C12.4194 16.7344 16 13.0488 16 8.5C16 3.95117 12.4194 0.265625 8 0.265625ZM8 3.45312C9.56774 3.45312 10.8387 4.76133 10.8387 6.375C10.8387 7.98867 9.56774 9.29688 8 9.29688C6.43226 9.29688 5.16129 7.98867 5.16129 6.375C5.16129 4.76133 6.43226 3.45312 8 3.45312ZM8 14.875C6.10645 14.875 4.40968 13.9918 3.27419 12.6105C3.88065 11.4352 5.06774 10.625 6.45161 10.625C6.52903 10.625 6.60645 10.6383 6.68065 10.6615C7.1 10.801 7.53871 10.8906 8 10.8906C8.46129 10.8906 8.90323 10.801 9.31935 10.6615C9.39355 10.6383 9.47097 10.625 9.54839 10.625C10.9323 10.625 12.1194 11.4352 12.7258 12.6105C11.5903 13.9918 9.89355 14.875 8 14.875Z" fill="black"/>
</svg>
